<svg xmlns="http://www.w3.org/2000/svg" preserveAspectRatio="xMidYMid" width="111.813" height="18.75">
  <defs>
    <filter id="a" filterUnits="userSpaceOnUse">
      <feFlood flood-color="#323a45"/>
      <feComposite operator="in" in2="SourceGraphic"/>
      <feBlend in2="SourceGraphic" result="solidFill"/>
    </filter>
  </defs>
  <path d="M104.966 11.851v6.899h-4.874v-6.899L93.244.004h5.673l3.599 6.249L106.14.004h5.674l-6.848 11.847zm-20.225 1.925c1.275 0 2.374-.45 3.149-1.25l3.499 3.449c-1.699 1.7-4.049 2.775-6.648 2.775-5.174 0-9.373-4.199-9.373-9.373 0-5.174 4.199-9.373 9.373-9.373 2.574 0 4.899 1.025 6.598 2.724L87.89 6.203c-.775-.775-1.874-1.225-3.149-1.225-2.549 0-4.399 1.85-4.399 4.399 0 2.55 1.85 4.399 4.399 4.399zM62.417 9.877v8.873h-4.924V.004h2l8.873 8.848V.004h4.923V18.75h-2.024l-8.848-8.873zM46.341 18.75c-4.124 0-7.398-3.274-7.398-7.398V.004h4.949v11.272c0 1.35 1.1 2.45 2.449 2.45 1.35 0 2.45-1.1 2.45-2.45V.004h4.949v11.348c0 4.124-3.325 7.398-7.399 7.398zm-19.675 0c-5.174 0-9.348-4.174-9.348-9.348S21.492.004 26.666.004s9.373 4.224 9.373 9.398c0 5.174-4.199 9.348-9.373 9.348zm0-13.847c-2.449 0-4.449 2-4.449 4.474 0 2.449 2 4.474 4.449 4.474 2.474 0 4.474-2.025 4.474-4.474 0-2.474-2-4.474-4.474-4.474zM9.241 18.75H-.007V.004h8.273c3 0 5.549 2.575 5.549 5.574 0 1.275-.475 2.45-1.2 3.374 1.275 1.025 2.125 2.599 2.125 4.299 0 2.974-2.525 5.499-5.499 5.499zM7.292 4.078H4.917v3.249h2.375c.899 0 1.624-.724 1.624-1.624 0-.9-.725-1.625-1.624-1.625zm.924 7.373H4.917v3.25h3.299c.9 0 1.625-.725 1.625-1.625 0-.899-.775-1.625-1.625-1.625z" fill="#fff" filter="url(#a)" fill-rule="evenodd"/>
</svg>
