<svg xmlns="http://www.w3.org/2000/svg" preserveAspectRatio="xMidYMid" width="61.3" height="58.8"><path d="M61.3 28.6c0 .6 0 1.2-.3 1.8a5 5 0 0 1-2 2.7l-1.6.7.7 1.4a5.3 5.3 0 0 1 0 3.4l-.7 1.6a9.4 9.4 0 0 1-2.7 1.9c.3.4.5 1 .7 1.5a5.4 5.4 0 0 1 0 3.5l-.7 1.4a6 6 0 0 1-1.3 1.2 3 3 0 0 1-1.5.7c.4.4.6 1 .8 1.4a5.2 5.2 0 0 1-.1 3.8l-1.1 1.7a7 7 0 0 1-1.9 1c-.6.4-1.3.5-2 .5H29c-.7 0-1.4 0-2.3-.3l-2.7-.8-2.8-1a75 75 0 0 0-8.4-3.4H0V26l1.1-.1h11a9 9 0 0 0 2.3-.3 7 7 0 0 0 2.2-1.2 290.7 290.7 0 0 0 6.8-5c2.8-2.5 4.6-5.5 5-9.2.6-3.6.8-5.7.8-6.3A3.3 3.3 0 0 1 30.8 1a4 4 0 0 1 1.5-.8l1.4-.2a9 9 0 0 1 2.3.3c.7.2 1.4.6 2.1 1.3.7.6 1.2 1.5 1.5 2.6.4 1 .6 2.5.6 4.3a29 29 0 0 1-1.3 8.7 23 23 0 0 1-1 3.6l-1 2.7h19c1 0 1.6.1 2.2.4.7.2 1.2.5 1.8 1 .5.5.8 1 1 1.6.3.6.4 1.3.4 2zm-5.3 3l1.2-.3c.4-.1.7-.3.9-.6l.7-1c.2-.3.3-.7.3-1.1 0-.8-.3-1.4-.9-2a3 3 0 0 0-2.2-.8H33l1-1.8c2.6-6.5 4-11.7 4-15.6 0-3.1-.6-5-1.6-5.5a6 6 0 0 0-2.6-.7c-.2 0-.7.1-1.2.4-.6.3-.9.6-.9 1.1l-.1 2.8a29.3 29.3 0 0 1-2.9 9.7 14 14 0 0 1-3.7 4.7 3674.8 3674.8 0 0 0-7 5.5c-1 .5-2 1-2.9 1.2-.9.3-1.9.4-3 .4H2.5v23h10.4c.6 0 1.5.2 2.6.7A299.4 299.4 0 0 1 27 56.2c.7.2 1.4.4 2 .4h18.6l1.2-.3 1-.7c.3-.2.5-.5.6-.9l.2-1.1c0-.5 0-.9-.2-1.2a3 3 0 0 0-1.6-1.5c-.4-.2-.8-.3-1.3-.3h-.3v-2.3h3.3c.4 0 .7-.1 1.1-.3a2 2 0 0 0 1-.6l.5-1c.2-.3.3-.7.3-1.1 0-.4 0-.7-.3-1.1l-.5-1-1-.6c-.4-.2-.7-.3-1.1-.3h-1V40H53a2 2 0 0 0 1.1-.3 2 2 0 0 0 1-.6l.7-1c.2-.3.3-.7.3-1.1 0-.5 0-.9-.3-1.3l-.7-.8-1-.7a2 2 0 0 0-1-.3h-1.2v-2.4h4z" fill="#00a2ff" fill-rule="evenodd"/></svg>